<?xml version="1.0" encoding="utf-8"?>
<!-- Svg Vector Icons : http://www.onlinewebfonts.com/icon -->
<!DOCTYPE svg PUBLIC "-//W3C//DTD SVG 1.1//EN" "http://www.w3.org/Graphics/SVG/1.1/DTD/svg11.dtd">
<svg version="1.1" xmlns="http://www.w3.org/2000/svg" xmlns:xlink="http://www.w3.org/1999/xlink" x="0px" y="0px" viewBox="0 0 1000 1000" enable-background="new 0 0 1000 1000" xml:space="preserve">
<metadata> Svg Vector Icons : http://www.onlinewebfonts.com/icon </metadata>
<g><g transform="translate(0.000000,511.000000) scale(0.100000,-0.100000)"><path d="M4904.3,3582.9c-465.1-65.1-926.4-243.1-1339.8-518.7c-258.4-172.3-622.1-539.8-802-807.7c-130.2-197.2-271.8-470.9-329.2-629.7c-13.4-40.2-30.6-72.7-36.4-72.7s-63.2,143.6-124.4,321.6c-160.8,461.3-174.2,482.4-289,482.4c-63.2,0-141.6-80.4-141.6-145.5c0-26.8,95.7-317.7,210.5-647c227.8-641.2,248.8-681.4,375.2-681.4c93.8,0,1215.4,361.7,1267.1,407.7c59.3,53.6,57.4,153.1-5.7,214.4c-24.9,26.8-61.3,47.9-80.4,47.9s-245-68.9-503.4-151.2c-256.5-84.2-470.9-151.2-472.8-147.4c-15.3,15.3,124.4,369.4,214.4,543.6c139.7,268,290.9,474.7,507.2,691c306.3,308.2,660.4,530.2,1052.7,660.4c296.7,97.6,455.5,126.3,775.2,139.7c331.1,11.5,581.9-19.1,891.9-111c224-65.1,246.9-67,300.5-17.2c57.4,55.5,68.9,118.7,34.4,189.5c-26.8,51.7-55.5,65.1-218.2,116.8c-101.4,30.6-250.8,70.8-329.2,88C5691,3590.6,5086.1,3607.8,4904.3,3582.9z"/><path d="M5201,2348.4l-47.9-45.9V1094.6V-113.1l47.9-45.9l45.9-47.9h2279.6h2279.6l45.9,47.9l47.9,45.9v1207.8v1207.8l-47.9,45.9l-45.9,47.9H7526.6H5246.9L5201,2348.4z M9593.7,1094.6V99.3H7526.6H5459.4v995.3V2090h2067.2h2067.2V1094.6z"/><path d="M7430.9,1948.3c-403.9-88-677.6-478.5-612.5-876.7c42.1-262.2,206.7-478.5,455.5-595.3c116.8-55.5,143.6-61.3,310.1-59.3c256.5,1.9,367.5,47.9,547.4,225.8c178,179.9,224,290.9,225.9,547.4c1.9,166.5-3.8,193.3-59.3,310.1c-116.8,246.9-333,413.4-589.5,455.5C7572.5,1978.9,7564.8,1978.9,7430.9,1948.3z M7763.9,1642.1c89.9-36.4,199.1-139.7,246.9-229.7c57.4-109.1,57.4-315.8,0-424.9c-172.3-325.4-633.6-344.5-821.1-30.6c-72.8,120.6-91.9,220.1-63.2,348.4c44,208.6,241.2,363.7,461.3,363.7C7649.1,1668.9,7727.5,1657.4,7763.9,1642.1z"/><path d="M147.9,51.5L100,5.5v-1207.8V-2410l47.9-45.9l45.9-47.9h2126.5h2126.5l45.9,47.9l47.9,45.9v1207.8V5.5l-47.9,45.9l-45.9,47.9H2320.3H193.8L147.9,51.5z M4234.4-1202.2v-995.3H2320.3H406.2v995.3v995.3h1914.1h1914.1V-1202.2z"/><path d="M2157.6-444.3C1943.2-495.9,1725-672,1633.2-865.4c-223.9-478.5,53.6-1008.7,580-1104.4c503.4-93.8,981.9,382.8,892,888.1c-59.3,317.7-277.5,555.1-583.8,635.5C2389.2-411.7,2289.7-411.7,2157.6-444.3z M2523.2-752.4c227.8-93.8,344.5-382.8,246.9-618.2c-44-107.2-193.3-241.2-306.3-271.8c-407.7-114.8-756.1,342.6-534,702.5c59.3,95.7,214.4,206.7,312,222C2312.7-704.6,2452.4-723.7,2523.2-752.4z"/><path d="M7603.1-878.8c-662.3-208.6-704.4-231.6-681.4-348.3c17.2-86.1,65.1-128.3,141.6-128.3c49.8,0,750.3,210.5,939.8,283.3c36.4,13.4,19.1-49.8-68.9-273.7c-336.9-853.7-1087.2-1483.4-2017.4-1686.3c-126.3-28.7-239.3-36.4-534-36.4c-398.1,1.9-491.9,15.3-830.7,118.7c-153.1,45.9-174.2,49.8-218.2,22.9c-28.7-15.3-63.2-49.8-78.5-78.5c-26.8-45.9-26.8-57.4,1.9-118.7c30.6-61.2,47.9-70.8,210.5-122.5c346.4-111,467-128.3,905.3-128.3c442.1,0,589.5,21,928.3,126.3c248.8,78.5,641.2,277.5,859.4,432.6c491.9,352.2,901.5,891.9,1102.5,1450.8c9.6,28.7,49.8-67,151.2-352.2c84.2-235.4,153.1-400,174.2-415.4c80.4-59.3,195.2-9.6,227.8,99.5c7.6,24.9-61.3,239.3-191.4,602.9c-258.4,715.8-239.3,673.7-319.7,712c-36.4,17.2-74.6,32.5-84.2,30.6C8213.7-687.4,7934.3-773.5,7603.1-878.8z"/></g></g>
</svg>